Coordinates
version=1
nRows=34
nColumns=19
inDegrees=yes

Units are S.I. units (second, meters, Newtons, ...)
If the header above contains a line with 'inDegrees', this indicates whether rotational values are in degrees (yes) or radians (no).

endheader
time	pelvis_tilt	pelvis_list	pelvis_rotation	pelvis_tx	pelvis_ty	pelvis_tz	hip_flexion_r	hip_adduction_r	hip_rotation_r	knee_angle_r	knee_angle_r_beta	ankle_angle_r	hip_flexion_l	hip_adduction_l	hip_rotation_l	knee_angle_l	knee_angle_l_beta	ankle_angle_l
     16.93333333	     -3.63996030	      7.85750215	      3.48523526	      2.14553142	      0.99541628	      0.97777849	     -8.45683411	    -11.31947734	    -12.20814016	     59.39848166	      1.03669908	    -11.44693468	     23.53283366	     12.25798097	     -4.49827081	     16.90181005	      0.29499223	      0.21126792
     16.94000000	     -3.52971753	      8.32002488	      3.68226860	      2.14437899	      0.98922349	      0.97725352	     -7.38874244	    -12.19854822	    -11.85077691	     62.65330689	      1.09350649	    -11.15211736	     24.12042277	     12.70204775	     -5.15988875	     19.65028888	      0.34296224	      1.08096384
     16.94666667	     -3.17485289	      8.91550775	      3.92581037	      2.14324179	      0.98304419	      0.97677194	     -6.62714879	    -13.21920953	    -11.62796809	     65.83180165	      1.14898169	    -10.78962163	     24.37771605	     13.30595854	     -5.67191968	     22.44148162	      0.39167774	      2.19357767
     16.95333333	     -2.89771961	      9.50849424	      4.20236095	      2.14197222	      0.97661932	      0.97628998	     -5.73924872	    -14.22374990	    -11.35230293	     68.98662507	      1.20404375	    -10.36726060	     24.73121805	     13.92634027	     -6.09247945	     25.37053394	      0.44279935	      3.57809508
     16.96000000	     -2.73910650	     10.03592315	      4.50948163	      2.14054179	      0.96998725	      0.97584714	     -4.65522906	    -15.14237917	    -11.00539743	     72.11827260	      1.25870131	     -9.85748399	     25.20614175	     14.50091276	     -6.41792689	     28.37900620	      0.49530710	      5.20765107
     16.96666667	     -2.65959346	     10.51521973	      4.83618197	      2.13897568	      0.96331505	      0.97545041	     -3.42134121	    -15.98241638	    -10.57793211	     75.19395925	      1.31238217	     -9.26298804	     25.73254355	     15.04565640	     -6.65578367	     31.39235539	      0.54789996	      7.02531936
     16.97333333	     -2.31093604	     11.07850633	      5.19833982	      2.13743947	      0.95708345	      0.97509115	     -2.53501472	    -16.89946619	    -10.26970593	     78.10748142	      1.36323272	     -8.52882431	     25.85645196	     15.68903180	     -6.81069710	     34.28484556	      0.59838344	      9.00169938
     16.98000000	     -2.12278076	     11.49391893	      5.53020960	      2.13566946	      0.95109453	      0.97479185	     -1.33264183	    -17.61358179	     -9.77072663	     80.93588960	      1.41259776	     -7.83028447	     26.04567294	     16.22680181	     -6.74690942	     36.96830148	      0.64521858	     10.99458257
     16.98666667	     -2.92196440	     11.53582144	      5.85534465	      2.13364241	      0.94417530	      0.97451971	      1.26057293	    -17.89986537	     -8.81137642	     83.87832548	      1.46395295	     -7.11063639	     27.36823290	     16.38935101	     -6.74718423	     39.75064663	      0.69377966	     13.06866028
     16.99333333	     -3.13402969	     11.72901178	      6.18684315	      2.13168884	      0.93842733	      0.97424559	      3.11201862	    -18.33638599	     -8.08499762	     86.53036971	      1.51023985	     -6.27243753	     27.81508235	     16.72486179	     -6.58398671	     42.14248424	      0.73552511	     15.03949046
     17.00000000	     -3.39523257	     11.83056150	      6.44880020	      2.12964210	      0.93317316	      0.97403738	      5.12907702	    -18.62508023	     -7.22030685	     89.03125253	      1.55388849	     -5.52731447	     28.17697357	     16.96898488	     -6.32820157	     44.26149226	      0.77250877	     16.92228335
     17.00666667	     -3.67830353	     11.84702432	      6.64836340	      2.12756191	      0.92844697	      0.97392968	      7.25733150	    -18.78204724	     -6.28365580	     91.35911504	      1.59451736	     -4.76633529	     28.41473298	     17.11172740	     -6.02114046	     46.10574426	      0.80469704	     18.68670710
     17.01333333	     -3.95819831	     11.80745944	      6.78214785	      2.12544086	      0.92430462	      0.97388358	      9.45708048	    -18.83986221	     -5.28763359	     93.50017282	      1.63188587	     -4.05822553	     28.49556259	     17.17034554	     -5.70094568	     47.66167763	      0.83185320	     20.29324448
     17.02000000	     -4.22273961	     11.71445569	      6.84126183	      2.12330880	      0.92078781	      0.97389787	     11.70234458	    -18.79753462	     -4.24814670	     95.43446250	      1.66564559	     -3.40464448	     28.40371241	     17.14453929	     -5.37332157	     48.92403384	      0.85388547	     21.72768263
     17.02666667	     -4.48936305	     11.57239731	      6.86387630	      2.12118433	      0.91788856	      0.97393814	     13.97694698	    -18.67685870	     -3.23089959	     97.14681246	      1.69553174	     -2.80760828	     28.15773639	     17.05408510	     -5.01870897	     49.90577294	      0.87102005	     22.99507898
     17.03333333	     -4.09454672	     11.51661251	      6.97914919	      2.11917502	      0.91651681	      0.97386425	     15.32874932	    -18.65550136	     -2.59178179	     98.46269070	      1.71849814	     -2.29470492	     26.95508981	     17.09943643	     -4.36773317	     50.53398287	      0.88198439	     23.98514394
     17.04000000	     -4.68233242	     11.31042562	      6.56004657	      2.11713617	      0.91436602	      0.97447555	     18.21729927	    -18.27699210	     -1.11438724	     99.83290615	      1.74241291	     -1.75614731	     26.82138935	     16.68527465	     -4.55638351	     50.96106148	      0.88943831	     25.00462910
     17.04666667	     -4.84033969	     11.11546846	      6.44003361	      2.11518491	      0.91347814	      0.97470358	     20.34008573	    -18.00413170	     -0.22541363	    100.79243387	      1.75915983	     -1.27245277	     26.00865166	     16.46126265	     -4.24297957	     51.12419637	      0.89228555	     25.77251546
     17.05333333	     -4.67097172	     10.89996986	      6.47473040	      2.11341049	      0.91366231	      0.97475911	     21.88631647	    -17.78595914	      0.25426421	    101.39580806	      1.76969070	     -0.79978803	     24.65905480	     16.30122539	     -3.61425613	     51.03113908	      0.89066140	     26.37360060
     17.06000000	     -4.63935014	     10.67621109	      6.34643652	      2.11188129	      0.91432744	      0.97507021	     23.59429656	    -17.49166672	      0.83173340	    101.76132095	      1.77607010	     -0.28454745	     23.31737535	     16.04142012	     -3.19179838	     50.63865753	      0.88381130	     26.92895350
     17.06666667	     -4.67716022	     10.43828230	      6.20748780	      2.11043738	      0.91546416	      0.97540218	     25.32327197	    -17.19422710	      1.32262801	    101.89112734	      1.77833565	      0.18369627	     21.96849440	     15.73370410	     -2.85943057	     50.07277278	      0.87393475	     27.23811276
     17.07333333	     -4.79668317	     10.39639878	      5.69596236	      2.10905224	      0.91688751	      0.97632165	     27.27840055	    -16.88549788	      2.23630523	    101.89268824	      1.77836289	      0.62839957	     20.64366688	     15.45919579	     -3.02678087	     49.25237027	      0.85961603	     27.40668885
     17.08000000	     -4.99301316	     10.04981019	      5.67261775	      2.10793699	      0.91898461	      0.97665959	     28.92186492	    -16.52580909	      2.34611263	    101.49068744	      1.77134666	      1.13386697	     19.27769991	     15.10160615	     -2.52777286	     48.33673494	      0.84363517	     27.39312826
     17.08666667	     -5.25656200	      9.70307042	      5.59923037	      2.10711076	      0.92158331	      0.97706553	     30.53872872	    -16.17204194	      2.38205592	    100.82187236	      1.75967363	      1.67342812	     17.89631632	     14.71259718	     -2.11589354	     47.23444588	      0.82439660	     27.24336646
     17.09333333	     -4.98103371	      9.65109409	      5.12745484	      2.10654762	      0.92532657	      0.97798353	     31.56119988	    -15.87541839	      2.76240135	     99.92915077	      1.74409270	      2.28721157	     15.75381095	     14.52974313	     -1.93687944	     45.67806342	      0.79723260	     26.82884339
     17.10000000	     -4.83013891	      9.25789166	      5.03307366	      2.10638599	      0.92954420	      0.97855068	     32.35796868	    -15.48290241	      2.43247906	     98.68518614	      1.72238142	      2.95008557	     13.69550495	     14.08157895	     -1.36447756	     44.11853115	      0.77001363	     26.24118982
     17.10666667	     -5.35212082	      8.75551924	      4.95696262	      2.10624130	      0.93327690	      0.97911262	     33.86361196	    -14.94635839	      2.13396093	     97.30067466	      1.69821714	      3.56886204	     12.43373563	     13.54506243	     -0.90906095	     42.61090133	      0.74370053	     25.41886320
     17.11333333	     -4.80911257	      8.33282485	      4.68581618	      2.10684271	      0.93888727	      0.97984544	     33.92264171	    -14.51578586	      1.59666554	     95.52055979	      1.66714827	      4.29451913	      9.78981591	     12.97135711	     -0.52446564	     40.64346058	      0.70936221	     24.33416801
     17.12000000	     -5.55431961	      7.73094422	      4.60332970	      2.10742072	      0.94301614	      0.98035969	     35.37573059	    -13.98923095	      1.00229917	     93.69879070	      1.63535240	      4.91773103	      8.72361917	     12.28219678	     -0.29586183	     38.97651114	      0.68026845	     23.07501661
     17.12666667	     -4.77813791	      7.08596242	      4.17552347	      2.10851391	      0.94964481	      0.98131277	     34.88911236	    -13.22364926	      0.28531347	     91.41929529	      1.59556770	      5.54341042	      5.80086983	     11.42434074	     -0.08502127	     36.80475693	      0.64236419	     21.42945429
     17.13333333	     -4.68153217	      6.37766956	      3.98923641	      2.10977759	      0.95548997	      0.98195981	     35.01331532	    -12.59641294	     -0.66648050	     89.03954765	      1.55403327	      6.21987685	      3.70927111	     10.56404568	      0.16600273	     34.80430640	      0.60744974	     19.58738639
     17.14000000	     -5.62023790	      5.70092789	      3.84542510	      2.11100329	      0.95989048	      0.98249230	     36.30688630	    -12.09395143	     -1.58654877	     86.68770316	      1.51298584	      6.78326700	      2.93785659	      9.75475980	      0.04912908	     33.13118674	      0.57824829	     17.63811189
     17.14666667	     -4.45796389	      4.79370856	      3.43940430	      2.11288268	      0.96752480	      0.98341794	     34.89030947	    -11.13215036	     -2.76925552	     83.73598675	      1.46146867	      7.29985588	     -0.40512647	      8.61401951	      0.14700290	     30.77382572	      0.53710458	     15.23267999
     17.15333333	     -4.39733139	      3.92169087	      3.06895940	      2.11460119	      0.97348767	      0.98432961	     34.74135698	    -10.23858161	     -3.84514719	     80.84392796	      1.41099272	      7.73223051	     -2.30682123	      7.54816825	     -0.14534285	     28.84481092	      0.50343692	     12.76207786
